<svg width="32" height="33" viewBox="0 0 32 33" fill="none" xmlns="http://www.w3.org/2000/svg">
<g clip-path="url(#clip0_126_780)">
<path d="M22.1667 15.1667V15.6667H22.6667H27.5V28H17.8333V23.1667V22.6667H17.3333H14.6667H14.1667V23.1667V28H4.5V10.3333H9.33333H9.83333V9.83333V5H22.1667V15.1667ZM9.33333 26.3333H9.83333V25.8333V23.1667V22.6667H9.33333H6.66667H6.16667V23.1667V25.8333V26.3333H6.66667H9.33333ZM9.33333 21H9.83333V20.5V17.8333V17.3333H9.33333H6.66667H6.16667V17.8333V20.5V21H6.66667H9.33333ZM9.33333 15.6667H9.83333V15.1667V12.5V12H9.33333H6.66667H6.16667V12.5V15.1667V15.6667H6.66667H9.33333ZM14.6667 21H15.1667V20.5V17.8333V17.3333H14.6667H12H11.5V17.8333V20.5V21H12H14.6667ZM14.6667 15.6667H15.1667V15.1667V12.5V12H14.6667H12H11.5V12.5V15.1667V15.6667H12H14.6667ZM14.6667 10.3333H15.1667V9.83333V7.16667V6.66667H14.6667H12H11.5V7.16667V9.83333V10.3333H12H14.6667ZM20 21H20.5V20.5V17.8333V17.3333H20H17.3333H16.8333V17.8333V20.5V21H17.3333H20ZM20 15.6667H20.5V15.1667V12.5V12H20H17.3333H16.8333V12.5V15.1667V15.6667H17.3333H20ZM20 10.3333H20.5V9.83333V7.16667V6.66667H20H17.3333H16.8333V7.16667V9.83333V10.3333H17.3333H20ZM25.3333 26.3333H25.8333V25.8333V23.1667V22.6667H25.3333H22.6667H22.1667V23.1667V25.8333V26.3333H22.6667H25.3333ZM25.3333 21H25.8333V20.5V17.8333V17.3333H25.3333H22.6667H22.1667V17.8333V20.5V21H22.6667H25.3333Z" fill="#0068C9" stroke="#072F54"/>
</g>
<defs>
<clipPath id="clip0_126_780">
<rect width="32" height="32" fill="white" transform="translate(0 0.5)"/>
</clipPath>
</defs>
</svg>
