<svg width="31" height="23" viewBox="0 0 31 23" fill="none" xmlns="http://www.w3.org/2000/svg">
<path d="M28 0.0101844C27.8775 -0.00339481 27.7541 -0.00339481 27.6317 0.0101844H2.47616C2.31493 0.0128578 2.15478 0.038873 2 0.0875296L14.982 14L28 0.0101844Z" fill="black"/>
<path d="M29.8875 1L16.2375 15.1088C15.8862 15.4713 15.411 15.6747 14.9156 15.6747C14.4203 15.6747 13.9451 15.4713 13.5938 15.1088L0.065625 1.10703C0.024037 1.26567 0.00198627 1.42915 0 1.59354V21.054C0 21.5701 0.197544 22.0651 0.549175 22.43C0.900806 22.795 1.37772 23 1.875 23H28.125C28.6223 23 29.0992 22.795 29.4508 22.43C29.8025 22.0651 30 21.5701 30 21.054V1.59354C29.9925 1.39082 29.9546 1.19055 29.8875 1ZM3.15938 21.054H1.85625V19.6625L8.67188 12.6471L9.99375 14.019L3.15938 21.054ZM28.1062 21.054H26.7938L19.9594 14.019L21.2812 12.6471L28.0969 19.6625L28.1062 21.054Z" fill="black"/>
</svg>
