<svg width="22" height="29" viewBox="0 0 22 29" fill="none" xmlns="http://www.w3.org/2000/svg">
<path d="M14.533 17.8546C14.374 17.7977 13.369 17.3023 13.997 15.2145H13.988C15.625 13.3707 16.876 10.4036 16.876 7.48252C16.876 2.99095 14.145 0.636353 10.971 0.636353C7.795 0.636353 5.079 2.98986 5.079 7.48252C5.079 10.4157 6.323 13.3947 7.97 15.2342C8.612 17.0759 7.464 17.7594 7.224 17.8557C3.9 19.1702 0 21.5664 0 23.9319V24.8188C0 28.0418 5.714 28.7745 11.002 28.7745C16.298 28.7745 21.94 28.0418 21.94 24.8188V23.9319C21.94 21.4953 18.021 19.1177 14.533 17.8546Z" fill="black"/>
</svg>
