<svg width="17" height="28" viewBox="0 0 17 28" fill="none" xmlns="http://www.w3.org/2000/svg">
<path d="M16.3929 0H0.607143C0.271317 0 0 0.56875 0 1.27273V23.8958H17V1.27273C17 0.56875 16.7287 0 16.3929 0ZM0 26.7273C0 27.4313 0.271317 28 0.607143 28H16.3929C16.7287 28 17 27.4313 17 26.7273V23.8958H0V26.7273ZM10.9855 19.4091C10.9855 19.2341 11.0538 19.0909 11.1373 19.0909H14.2679C14.3513 19.0909 14.4196 19.2341 14.4196 19.4091V22.2727C14.4196 22.4477 14.3513 22.5909 14.2679 22.5909H11.1373C11.0538 22.5909 10.9855 22.4477 10.9855 22.2727V19.4091Z" fill="black"/>
</svg>
