<svg width="30" height="27" viewBox="0 0 30 27" fill="none" xmlns="http://www.w3.org/2000/svg">
<path d="M28.9286 0.550903H1.07143C0.478795 0.550903 0 1.07453 0 1.72266V7.58142H30V1.72266C30 1.07453 29.5212 0.550903 28.9286 0.550903ZM0 25.1577C0 25.8058 0.478795 26.3295 1.07143 26.3295H28.9286C29.5212 26.3295 30 25.8058 30 25.1577V10.8037H0V25.1577ZM19.3862 18.4201C19.3862 18.259 19.5067 18.1272 19.654 18.1272H25.1786C25.3259 18.1272 25.4464 18.259 25.4464 18.4201V21.0566C25.4464 21.2177 25.3259 21.3495 25.1786 21.3495H19.654C19.5067 21.3495 19.3862 21.2177 19.3862 21.0566V18.4201Z" fill="black"/>
</svg>
