<svg width="22" height="22" viewBox="0 0 22 22" fill="none" xmlns="http://www.w3.org/2000/svg">
<g clip-path="url(#clip0_15_233)">
<path d="M15.9305 0H6.06953C2.71746 0 0 2.71746 0 6.06953V15.9305C0 19.2825 2.71746 22 6.06953 22H15.9305C19.2825 22 22 19.2825 22 15.9305V6.06953C22 2.71746 19.2825 0 15.9305 0ZM20.0473 15.9305C20.0473 18.2086 18.1923 20.0473 15.9305 20.0473H6.06953C3.79142 20.0473 1.95266 18.1923 1.95266 15.9305V6.06953C1.95266 3.80769 3.80769 1.95266 6.06953 1.95266H15.9305C18.2086 1.95266 20.0473 3.80769 20.0473 6.06953V15.9305Z" fill="white"/>
<path d="M11 5.3374C7.87572 5.3374 5.32098 7.87586 5.32098 11.0001C5.32098 14.1244 7.85945 16.6791 11 16.6791C14.1242 16.6791 16.679 14.1407 16.679 11.0001C16.679 7.87586 14.1242 5.3374 11 5.3374ZM11 14.7265C8.94968 14.7265 7.27365 13.0667 7.27365 11.0164C7.28992 8.94983 8.94968 7.29007 11 7.29007C13.0503 7.29007 14.7263 8.94983 14.7263 11.0001C14.7263 13.0504 13.0503 14.7265 11 14.7265Z" fill="white"/>
<path d="M16.9068 3.67725C16.5325 3.67725 16.1583 3.8237 15.8979 4.10032C15.6376 4.36068 15.4749 4.73494 15.4749 5.1092C15.4749 5.48346 15.6213 5.85772 15.8979 6.11808C16.1583 6.37843 16.5325 6.54115 16.9068 6.54115C17.2811 6.54115 17.6553 6.3947 17.9157 6.11808C18.176 5.85772 18.3388 5.48346 18.3388 5.1092C18.3388 4.73494 18.1923 4.36068 17.9157 4.10032C17.6553 3.8237 17.2973 3.67725 16.9068 3.67725Z" fill="white"/>
</g>
<defs>
<clipPath id="clip0_15_233">
<rect width="22" height="22" fill="white"/>
</clipPath>
</defs>
</svg>
