<svg width="23" height="22" viewBox="0 0 23 22" fill="none" xmlns="http://www.w3.org/2000/svg">
<g clip-path="url(#clip0_15_222)">
<path d="M5.21579 7.14941H0.275726V22H5.21579V7.14941Z" fill="white"/>
<path d="M21.4376 8.50584C20.4036 7.3794 19.025 6.80469 17.3247 6.80469C16.7043 6.80469 16.1299 6.87365 15.6014 7.03457C15.0959 7.19549 14.6593 7.40239 14.2917 7.67825C13.947 7.95411 13.6483 8.20699 13.4416 8.45986C13.2348 8.68974 13.0509 8.94262 12.8671 9.24147V7.12653H7.95004L7.97302 7.83917C7.97302 8.32193 7.996 9.79319 7.996 12.276C7.996 14.7587 7.996 17.9771 7.97302 21.9771H12.8901V13.7012C12.8901 13.1955 12.9361 12.7817 13.0509 12.4828C13.2577 11.9771 13.5794 11.5403 13.993 11.1955C14.4066 10.8507 14.9351 10.6897 15.5784 10.6897C16.4286 10.6897 17.0719 10.9886 17.4625 11.5863C17.8761 12.184 18.0599 13.0116 18.0599 14.0461V21.9771H22.977V13.4714C23 11.2874 22.4945 9.63227 21.4376 8.50584Z" fill="white"/>
<path d="M2.78022 0C1.95305 0 1.28671 0.252874 0.781219 0.735632C0.252747 1.21839 0 1.81609 0 2.55172C0 3.28736 0.252747 3.88506 0.758242 4.39081C1.26374 4.87356 1.90709 5.12644 2.73427 5.12644H2.75724C3.60739 5.12644 4.27373 4.87356 4.77922 4.39081C5.28472 3.90805 5.53746 3.28736 5.53746 2.55172C5.53746 1.81609 5.26174 1.1954 4.77922 0.712644C4.27373 0.252874 3.60739 0 2.78022 0Z" fill="white"/>
</g>
<defs>
<clipPath id="clip0_15_222">
<rect width="23" height="22" fill="white"/>
</clipPath>
</defs>
</svg>
