<svg width="64" height="80" viewBox="0 0 64 80" fill="none" xmlns="http://www.w3.org/2000/svg">
<g clip-path="url(#clip0_10_10)">
<path d="M27.1291 51.3043L25.2794 52.9192L25.4027 53.0434C26.3892 53.913 27.1291 55.4037 27.1291 56.7701C27.1291 58.6335 26.0193 60.3726 24.2929 61.4906L24.0463 61.6148L25.0328 63.354L25.2794 63.2298L25.4027 63.4782C27.869 62.236 29.4721 59.6273 29.4721 56.7701C29.4721 54.7826 28.6089 52.9192 27.1291 51.5527V51.3043ZM26.0193 30.3105L26.2659 31.3043H30.3353C30.212 32.9192 29.5954 35.5279 27.7457 37.5155L29.3488 38.882C30.9518 37.3913 32.0617 34.7826 32.4316 32.6708C32.8016 34.7826 33.9114 37.3913 35.5145 38.882L37.1175 37.5155C35.2678 35.5279 34.6513 32.9192 34.528 31.3043H38.9673L39.2139 30.1863C39.2139 30.1863 40.447 24.472 42.2967 17.0186C42.79 15.031 41.0636 12.4224 38.2274 10.3106C36.9942 9.31676 35.5145 8.4472 33.9114 7.57763V4.47205H35.7611C36.2544 3.85093 36.2544 2.73292 35.7611 2.1118H33.9114V0.372671C33.1715 -0.124223 32.185 4.17233e-07 31.4451 0.372671V2.36025H29.7187C29.3488 2.98136 29.3488 4.09938 29.7187 4.72049H31.4451V7.82608C29.3488 8.81987 27.499 10.0621 26.2659 11.1801C24.1696 13.0435 22.8131 15.2795 23.1831 17.1428C24.6628 24.8447 26.0193 30.3105 26.0193 30.3105ZM32.4316 10.1863C37.1175 12.0497 39.8305 15.6522 39.5838 16.5217C38.1041 22.3602 37.1175 26.9565 36.6243 29.0683H28.1156C27.6224 27.0807 26.5125 22.3602 25.2794 16.5217C25.0328 15.5279 27.7457 12.0497 32.4316 10.1863ZM22.4432 42.4844C23.6763 42.6087 25.1561 42.4844 26.0193 41.7391L24.4162 40.3726C24.0463 40.7453 23.1831 40.7453 22.5665 40.6211C21.58 40.3726 20.5935 39.2546 20.5935 38.2608L18.4971 37.8882C18.3738 38.1366 15.291 44.9689 21.7033 49.5652L23.3064 48.1987C19.9769 45.59 19.6069 42.8571 19.8536 40.8695C20.4701 41.7391 21.3333 42.236 22.4432 42.4844ZM62.2736 63.2298C61.6571 62.6086 61.0405 62.236 60.3006 61.9875C61.0405 60.9937 61.4104 59.6273 61.4104 58.385C61.4104 56.8944 60.7939 55.2795 59.684 54.1614C58.5742 53.0434 56.9711 52.4223 55.4914 52.4223C54.0116 52.4223 52.4085 53.0434 51.2987 54.1614C50.4355 55.031 49.9422 56.0248 49.6956 57.0186L34.4046 44.3478L46.3661 34.5341L51.5453 40.4969L50.0655 41.7391L51.052 42.8571L55.8613 38.882L52.7784 34.6584L51.422 35.7764L50.5588 36.2733L49.449 35.031L50.0655 34.5341L51.422 33.4161L49.8189 31.3043L51.1754 30.1863L52.7784 32.2981L54.0116 31.3043L54.7515 30.6832L55.738 31.9254L55.1214 32.4223L53.8883 33.4161L57.0944 37.5155L62.3969 33.1677L61.4104 32.0497L60.054 33.1677L55.1214 26.8323L58.2043 24.3478C58.081 23.4782 57.3411 22.6087 56.6012 22.3602L32.3083 42.6087L8.50867 23.1056C7.76879 23.354 7.0289 24.2236 6.90559 25.0931L9.98844 27.5776L5.05588 33.913L3.82274 32.795L2.83622 33.913L8.13873 38.2608L11.3449 34.1615L9.37187 32.6708L10.3584 31.4285L12.3314 32.9192L13.9345 30.8074L15.2909 31.9254L13.6879 34.0372L15.6609 35.6521L14.5511 36.8944L12.578 35.2795L9.49519 39.5031L14.3044 43.4782L15.2909 42.236L13.8112 40.9938L18.9904 35.031L30.212 44.2236L14.4278 57.1428C14.1811 55.9006 13.6879 54.7826 12.8247 53.913C11.7148 52.6708 10.1118 52.1739 8.63199 52.1739C7.15222 52.1739 5.54914 52.795 4.43931 53.913C3.08285 55.031 2.46628 56.6459 2.46628 58.1366C2.46628 59.3788 2.83622 60.6211 3.57611 61.7391C2.83622 61.9875 2.21965 62.4844 1.60308 62.9813C0.616571 64.2235 0 65.7142 0 67.3291C0 68.8198 0.616571 70.4347 1.7264 71.5527C2.83622 72.795 4.43931 73.2919 5.91908 73.2919C7.39885 73.2919 8.7553 72.795 9.86513 71.9254V79.9999C9.86513 79.9999 11.8382 79.9999 12.578 76.7701V70.062C13.3179 70.4347 14.1811 70.5589 15.0443 70.5589C16.5241 70.5589 18.1272 69.9378 19.237 68.8198C20.3468 67.7018 20.9634 66.0869 20.9634 64.5962C20.9634 63.1055 20.3468 61.4906 19.237 60.3726C18.4971 59.6273 17.5106 59.1304 16.5241 58.8819L21.4567 55.031L24.9095 52.1739L31.0752 47.0807V47.3291C31.0752 47.3291 32.4316 47.9503 33.5414 47.3291V47.0807L40.3237 52.6708L47.8459 59.0062C46.736 59.2546 45.6262 59.7515 44.763 60.6211C43.6532 61.7391 43.0366 63.354 43.0366 64.8447C43.0366 66.3354 43.6532 67.9502 44.763 69.0683C45.8729 70.3105 47.4759 70.8074 48.9557 70.8074C49.6956 70.8074 50.5588 70.6832 51.2987 70.3105V76.7701C52.0386 79.8757 53.8883 79.9999 53.8883 79.9999V71.9254C54.9981 72.9192 56.4779 73.5403 57.8343 73.5403C59.3141 73.5403 60.9172 72.9192 62.027 71.8012C63.2601 70.6832 63.7534 69.0683 63.7534 67.5776C64 65.9627 63.3835 64.3478 62.2736 63.2298ZM17.6339 61.9875C18.3738 62.7329 18.7437 63.7267 18.7437 64.7204C18.7437 65.7142 18.3738 66.708 17.6339 67.4534C16.894 68.1987 15.9075 68.5714 15.0443 68.5714C14.0578 68.5714 13.0713 68.1987 12.3314 67.4534C12.0848 67.2049 11.9615 67.0807 11.8382 66.8322C11.5915 66.4596 11.0983 66.2111 10.605 66.3354C10.1118 66.4596 9.86513 66.9565 9.74182 67.4534C9.74182 68.4471 9.37187 69.4409 8.63199 70.062C7.8921 70.8074 6.90559 71.1801 5.91908 71.1801C4.93256 71.1801 3.94605 70.8074 3.32948 70.062C2.5896 69.3167 2.21965 68.3229 2.21965 67.3291C2.21965 66.3354 2.5896 65.3416 3.32948 64.5962C4.06937 63.8509 5.05588 63.4782 5.91908 63.4782C6.41233 63.4782 6.90559 63.1055 7.0289 62.6086C7.15222 62.1117 6.90559 61.6149 6.53565 61.3664C6.28902 61.2422 6.04239 60.9937 5.79576 60.7453C5.05588 60 4.68594 59.0062 4.68594 58.0124C4.68594 57.0186 5.05588 56.0248 5.79576 55.2795C6.53565 54.5341 7.52216 54.1614 8.50867 54.1614C9.49519 54.1614 10.4817 54.5341 11.2216 55.2795C11.9615 56.0248 12.3314 57.0186 12.3314 57.8881C12.3314 58.385 12.2081 59.0062 11.9615 59.5031C11.7148 59.8757 11.8382 60.4968 12.2081 60.7453C12.578 61.118 13.0713 61.118 13.4412 60.9937C13.9345 60.7453 14.4278 60.6211 15.0443 60.6211C15.9075 60.8695 16.894 61.2422 17.6339 61.9875ZM60.6705 70.1863C59.9307 70.9316 58.9441 71.3043 58.0809 71.3043C57.0944 71.3043 56.1079 70.9316 55.368 70.1863C54.6282 69.4409 54.2582 68.4471 54.2582 67.5776C54.2582 67.0807 53.8883 66.5838 53.395 66.4596H53.0251C52.6551 66.4596 52.2852 66.708 52.0386 66.9565C51.9152 67.2049 51.7919 67.4534 51.5453 67.5776C50.8054 68.3229 49.8189 68.6956 48.8324 68.6956C47.8459 68.6956 46.8594 68.3229 46.2428 67.5776C45.5029 66.8322 45.133 65.8385 45.133 64.8447C45.133 63.8509 45.5029 62.8571 46.2428 62.1117C46.9827 61.3664 47.9692 60.9937 48.8324 60.9937C49.3256 60.9937 49.9422 61.118 50.4355 61.3664C50.8054 61.6149 51.422 61.4906 51.6686 61.118C52.0386 60.7453 52.0386 60.2484 51.9152 59.8757C51.6686 59.3788 51.5453 58.8819 51.5453 58.2608C51.5453 57.267 51.9152 56.3975 52.6551 55.6521C53.395 54.9068 54.3815 54.5341 55.368 54.5341C56.3546 54.5341 57.3411 54.9068 58.0809 55.6521C58.8208 56.3975 59.1908 57.3913 59.1908 58.385C59.1908 59.3788 58.8208 60.3726 58.0809 61.118C57.8343 61.3664 57.5877 61.4906 57.3411 61.7391C56.8478 61.9875 56.7245 62.4844 56.8478 62.9813C56.9711 63.4782 57.4644 63.8509 57.9576 63.8509C58.9441 63.8509 59.9307 64.2235 60.5472 64.9689C61.2871 65.7142 61.6571 66.708 61.6571 67.7018C61.7804 68.4471 61.4104 69.4409 60.6705 70.1863ZM41.1869 48.1987L42.79 49.5652C49.3256 44.9689 46.1195 38.1366 45.9962 37.8882L43.8998 38.3851C43.8998 39.3788 42.9133 40.4969 41.9268 40.7453C41.3102 40.8695 40.447 40.8695 40.0771 40.4969L38.474 41.8633C39.2139 42.6087 40.817 42.7329 42.0501 42.6087C43.2833 42.3602 44.1465 41.7391 44.6397 40.9938C44.8863 42.8571 44.3931 45.7142 41.1869 48.1987ZM37.3642 56.7701C37.3642 55.5279 38.1041 54.0372 39.0906 53.0434L39.3372 52.9192L37.4875 51.3043L37.3642 51.4285C35.8844 52.795 35.0212 54.6583 35.0212 56.6459C35.0212 59.5031 36.6243 62.1117 39.0906 63.354L39.2139 63.1055L39.4605 63.2298L40.447 61.4906L40.2004 61.3664C38.474 60.2484 37.3642 58.6335 37.3642 56.7701Z" fill="#7E8083"/>
</g>
<defs>
<clipPath id="clip0_10_10">
<rect width="64" height="80" fill="white"/>
</clipPath>
</defs>
</svg>
